<?xml version="1.0" encoding="UTF-8"?>
<svg width="752pt" height="752pt" version="1.1" viewBox="0 0 752 752" xmlns="http://www.w3.org/2000/svg">
 <path d="m334.8 404.42 2.7461 14.207h100.02c5.0234 0 9.8438 1.9961 13.395 5.5469 3.5547 3.5508 5.5508 8.3711 5.5508 13.395 0 5.0234-1.9961 9.8438-5.5508 13.395-3.5508 3.5547-8.3711 5.5508-13.395 5.5508-5.0234 0-9.8438-1.9961-13.395-5.5508-3.5508-3.5508-5.5469-8.3711-5.5469-13.395 0.019531-3.332 0.91797-6.5977 2.6016-9.4727h-76.293c1.7031 2.8711 2.6172 6.1367 2.6523 9.4727-0.003907 4.9805-1.9688 9.7578-5.4688 13.301-3.5 3.5391-8.2539 5.5625-13.23 5.625-4.9805 0.066406-9.7852-1.8359-13.375-5.2852-3.5859-3.4531-5.6719-8.1758-5.8047-13.156-0.13281-4.9766 1.7031-9.8047 5.1055-13.441s8.0977-5.7852 13.074-5.9844l-22.07-113.66h-15.059v-9.4727h23.68l4.7344 28.414 142.07 4.7344-18.941 75.777zm102.77 42.621c3.832 0 7.2852-2.3086 8.75-5.8477 1.4688-3.5391 0.65625-7.6133-2.0508-10.32-2.7109-2.7109-6.7852-3.5195-10.324-2.0547-3.5391 1.4648-5.8477 4.918-5.8477 8.75 0 2.5117 1 4.9219 2.7773 6.6992 1.7734 1.7734 4.1836 2.7734 6.6953 2.7734zm-118.39-9.4727c0 3.832 2.3086 7.2852 5.8477 8.75 3.5391 1.4688 7.6133 0.65625 10.32-2.0508 2.7109-2.7109 3.5195-6.7852 2.0547-10.324-1.4648-3.5391-4.9219-5.8477-8.75-5.8477-5.2305 0-9.4727 4.2422-9.4727 9.4727zm1.8477-104.19 11.98 61.566h101.54l15.156-57.352z" fill-rule="evenodd"/>
</svg>
